<svg width="1200" height="720" viewBox="0 0 1200 720" fill="none" xmlns="http://www.w3.org/2000/svg">
  <rect width="1200" height="720" fill="#0B0D0F"/>
  <rect x="32" y="32" width="1136" height="656" rx="36" fill="url(#bg-abs)" stroke="#4F8CFF" stroke-opacity="0.35" stroke-width="2"/>
  <circle cx="980" cy="160" r="180" fill="#4F8CFF" fill-opacity="0.07"/>
  <circle cx="200" cy="600" r="200" fill="#4F8CFF" fill-opacity="0.05"/>

  <rect x="92" y="92" width="280" height="42" rx="21" fill="#151820" stroke="#4F8CFF" stroke-opacity="0.3"/>
  <text x="124" y="120" fill="#4F8CFF" font-family="Arial, Helvetica, sans-serif" font-size="18" font-weight="700" letter-spacing="3">ATTENDANCE APP</text>

  <text x="92" y="250" fill="#E8F0FF" font-family="Georgia, 'Times New Roman', serif" font-size="72" font-weight="700">Absensiku</text>
  <text x="92" y="310" fill="#8FBAFF" font-family="Arial, Helvetica, sans-serif" font-size="28" font-weight="700" letter-spacing="4">SMART ATTENDANCE</text>
  <text x="92" y="382" fill="#C8D8F0" font-family="Arial, Helvetica, sans-serif" font-size="26">Sistem absensi modern dengan geolokasi,</text>
  <text x="92" y="418" fill="#C8D8F0" font-family="Arial, Helvetica, sans-serif" font-size="26">rekap otomatis, dan dashboard real-time.</text>

  <rect x="92" y="480" width="180" height="58" rx="12" fill="#4F8CFF"/>
  <text x="122" y="517" fill="#0B0D0F" font-family="Arial, Helvetica, sans-serif" font-size="22" font-weight="700">CHECK IN</text>
  <rect x="292" y="480" width="180" height="58" rx="12" fill="#151820" stroke="#4F8CFF" stroke-opacity="0.5"/>
  <text x="322" y="517" fill="#E8F0FF" font-family="Arial, Helvetica, sans-serif" font-size="22" font-weight="700">HISTORY</text>

  <!-- Dashboard card -->
  <rect x="700" y="120" width="380" height="480" rx="28" fill="#111620" stroke="#4F8CFF" stroke-opacity="0.3"/>
  <rect x="730" y="156" width="320" height="60" rx="14" fill="#1A2030"/>
  <circle cx="762" cy="186" r="18" fill="#4F8CFF" fill-opacity="0.6"/>
  <text x="792" y="193" fill="#E8F0FF" font-family="Arial, Helvetica, sans-serif" font-size="20" font-weight="700">Today's Attendance</text>
  <rect x="730" y="240" width="150" height="100" rx="16" fill="#1A2030" stroke="#4F8CFF" stroke-opacity="0.2"/>
  <text x="760" y="280" fill="#4F8CFF" font-family="Arial, Helvetica, sans-serif" font-size="36" font-weight="700">24</text>
  <text x="760" y="318" fill="#8FBAFF" font-family="Arial, Helvetica, sans-serif" font-size="16">Present</text>
  <rect x="900" y="240" width="150" height="100" rx="16" fill="#1A2030" stroke="#FF6B6B" stroke-opacity="0.2"/>
  <text x="930" y="280" fill="#FF6B6B" font-family="Arial, Helvetica, sans-serif" font-size="36" font-weight="700">3</text>
  <text x="930" y="318" fill="#FF9B9B" font-family="Arial, Helvetica, sans-serif" font-size="16">Absent</text>

  <!-- List items -->
  <rect x="730" y="370" width="320" height="52" rx="12" fill="#1A2030"/>
  <circle cx="762" cy="396" r="12" fill="#34D399"/>
  <text x="786" y="402" fill="#C8D8F0" font-family="Arial, Helvetica, sans-serif" font-size="18">Ahmad — 07:58 AM</text>
  <rect x="730" y="434" width="320" height="52" rx="12" fill="#1A2030"/>
  <circle cx="762" cy="460" r="12" fill="#34D399"/>
  <text x="786" y="466" fill="#C8D8F0" font-family="Arial, Helvetica, sans-serif" font-size="18">Siti — 08:02 AM</text>
  <rect x="730" y="498" width="320" height="52" rx="12" fill="#1A2030"/>
  <circle cx="762" cy="524" r="12" fill="#FBBF24"/>
  <text x="786" y="530" fill="#C8D8F0" font-family="Arial, Helvetica, sans-serif" font-size="18">Budi — 08:31 AM (Late)</text>

  <defs>
    <linearGradient id="bg-abs" x1="70" y1="76" x2="1074" y2="648" gradientUnits="userSpaceOnUse">
      <stop stop-color="#0E1219"/>
      <stop offset="1" stop-color="#0A0D12"/>
    </linearGradient>
  </defs>
</svg>