<svg width="1200" height="720" viewBox="0 0 1200 720" fill="none" xmlns="http://www.w3.org/2000/svg">
  <rect width="1200" height="720" fill="#0B0C10"/>
  <rect x="32" y="32" width="1136" height="656" rx="36" fill="url(#bg-pos)" stroke="#6366F1" stroke-opacity="0.35" stroke-width="2"/>
  <circle cx="980" cy="140" r="180" fill="#6366F1" fill-opacity="0.06"/>
  <circle cx="200" cy="620" r="200" fill="#6366F1" fill-opacity="0.04"/>

  <rect x="92" y="92" width="280" height="42" rx="21" fill="#12121A" stroke="#6366F1" stroke-opacity="0.3"/>
  <text x="124" y="120" fill="#A5B4FC" font-family="Arial, Helvetica, sans-serif" font-size="18" font-weight="700" letter-spacing="3">POINT OF SALE</text>

  <text x="92" y="250" fill="#E0E7FF" font-family="Georgia, 'Times New Roman', serif" font-size="72" font-weight="700">POS Kasirku</text>
  <text x="92" y="310" fill="#818CF8" font-family="Arial, Helvetica, sans-serif" font-size="28" font-weight="700" letter-spacing="4">CASHIER SYSTEM</text>
  <text x="92" y="382" fill="#C7D2FE" font-family="Arial, Helvetica, sans-serif" font-size="26">Sistem kasir modern dengan manajemen</text>
  <text x="92" y="418" fill="#C7D2FE" font-family="Arial, Helvetica, sans-serif" font-size="26">produk, transaksi, dan laporan penjualan.</text>

  <rect x="92" y="480" width="220" height="58" rx="12" fill="#6366F1"/>
  <text x="118" y="517" fill="#FFFFFF" font-family="Arial, Helvetica, sans-serif" font-size="22" font-weight="700">NEW ORDER</text>
  <rect x="332" y="480" width="200" height="58" rx="12" fill="#12121A" stroke="#6366F1" stroke-opacity="0.5"/>
  <text x="370" y="517" fill="#E0E7FF" font-family="Arial, Helvetica, sans-serif" font-size="22" font-weight="700">HISTORY</text>

  <!-- POS panel -->
  <rect x="700" y="120" width="380" height="480" rx="28" fill="#0F0F1A" stroke="#6366F1" stroke-opacity="0.3"/>
  <rect x="730" y="156" width="320" height="60" rx="14" fill="#161625"/>
  <text x="762" y="193" fill="#E0E7FF" font-family="Arial, Helvetica, sans-serif" font-size="20" font-weight="700">🧾 Current Order</text>

  <rect x="730" y="240" width="150" height="100" rx="16" fill="#161625" stroke="#6366F1" stroke-opacity="0.2"/>
  <text x="760" y="280" fill="#6366F1" font-family="Arial, Helvetica, sans-serif" font-size="36" font-weight="700">Rp</text>
  <text x="760" y="318" fill="#A5B4FC" font-family="Arial, Helvetica, sans-serif" font-size="16">Total Sales</text>
  <rect x="900" y="240" width="150" height="100" rx="16" fill="#161625" stroke="#34D399" stroke-opacity="0.2"/>
  <text x="930" y="280" fill="#34D399" font-family="Arial, Helvetica, sans-serif" font-size="36" font-weight="700">24</text>
  <text x="930" y="318" fill="#6EE7B7" font-family="Arial, Helvetica, sans-serif" font-size="16">Transactions</text>

  <!-- Item rows -->
  <rect x="730" y="370" width="320" height="44" rx="10" fill="#161625"/>
  <text x="750" y="398" fill="#C7D2FE" font-family="Arial, Helvetica, sans-serif" font-size="16">Kopi Susu x2</text>
  <text x="960" y="398" fill="#6366F1" font-family="Arial, Helvetica, sans-serif" font-size="16" font-weight="700">30k</text>
  <rect x="730" y="424" width="320" height="44" rx="10" fill="#161625"/>
  <text x="750" y="452" fill="#C7D2FE" font-family="Arial, Helvetica, sans-serif" font-size="16">Roti Bakar x1</text>
  <text x="960" y="452" fill="#6366F1" font-family="Arial, Helvetica, sans-serif" font-size="16" font-weight="700">15k</text>
  <rect x="730" y="478" width="320" height="44" rx="10" fill="#161625"/>
  <text x="750" y="506" fill="#C7D2FE" font-family="Arial, Helvetica, sans-serif" font-size="16">Nasi Goreng x1</text>
  <text x="960" y="506" fill="#6366F1" font-family="Arial, Helvetica, sans-serif" font-size="16" font-weight="700">25k</text>
  <rect x="730" y="532" width="320" height="44" rx="10" fill="#161625"/>
  <text x="750" y="560" fill="#34D399" font-family="Arial, Helvetica, sans-serif" font-size="16" font-weight="700">TOTAL</text>
  <text x="930" y="560" fill="#34D399" font-family="Arial, Helvetica, sans-serif" font-size="16" font-weight="700">Rp 70.000</text>

  <defs>
    <linearGradient id="bg-pos" x1="70" y1="76" x2="1074" y2="648" gradientUnits="userSpaceOnUse">
      <stop stop-color="#0D0D14"/>
      <stop offset="1" stop-color="#09090F"/>
    </linearGradient>
  </defs>
</svg>
