<svg xmlns="http://www.w3.org/2000/svg" viewBox="0 0 400 220" width="400" height="220">
  <!-- Background -->
  <rect width="400" height="220" fill="#0d0d18"/>

  <!-- Navbar -->
  <rect width="400" height="36" fill="#12121f"/>
  <text x="16" y="23" font-family="Arial,sans-serif" font-size="13" font-weight="700" fill="white">TaskFlow</text>
  <circle cx="86" cy="18" r="4" fill="#a855f7"/>
  <text x="100" y="23" font-family="Arial,sans-serif" font-size="9.5" fill="#64748b">Dashboard</text>
  <text x="164" y="23" font-family="Arial,sans-serif" font-size="9.5" font-weight="600" fill="white">Board</text>
  <text x="208" y="23" font-family="Arial,sans-serif" font-size="9.5" fill="#64748b">Reports</text>
  <text x="254" y="23" font-family="Arial,sans-serif" font-size="9.5" fill="#64748b">Team</text>
  <!-- New task btn -->
  <rect x="338" y="9" width="50" height="18" rx="9" fill="#a855f7"/>
  <text x="363" y="21.5" font-family="Arial,sans-serif" font-size="9" font-weight="600" fill="white" text-anchor="middle">+ New</text>

  <!-- Project filter bar -->
  <rect x="0" y="36" width="400" height="24" fill="#0f0f1c"/>
  <text x="12" y="51" font-family="Arial,sans-serif" font-size="8.5" fill="#94a3b8">Sprint 3  |  Due Mar 20</text>
  <rect x="284" y="40" width="56" height="16" rx="4" fill="#1e1e35"/>
  <text x="312" y="51" font-family="Arial,sans-serif" font-size="8" fill="#64748b" text-anchor="middle">Filter &#9660;</text>
  <rect x="346" y="40" width="44" height="16" rx="4" fill="#1e1e35"/>
  <text x="368" y="51" font-family="Arial,sans-serif" font-size="8" fill="#64748b" text-anchor="middle">Sort &#9660;</text>

  <!-- ── Column TO DO ── -->
  <rect x="8" y="68" width="122" height="146" rx="8" fill="#0f0f1c"/>
  <text x="18" y="84" font-family="Arial,sans-serif" font-size="9" font-weight="700" fill="#64748b" letter-spacing="1">TO DO</text>
  <circle cx="116" cy="79" r="9" fill="#1e1e35"/>
  <text x="116" y="83" font-family="Arial,sans-serif" font-size="9" fill="#94a3b8" text-anchor="middle">3</text>

  <!-- Task 1 -->
  <rect x="14" y="92" width="110" height="50" rx="6" fill="#1a1a2e"/>
  <rect x="14" y="92" width="3" height="50" rx="2" fill="#6366f1"/>
  <text x="24" y="107" font-family="Arial,sans-serif" font-size="9" font-weight="600" fill="#e2e8f0">Design homepage</text>
  <text x="24" y="119" font-family="Arial,sans-serif" font-size="8" fill="#475569">UI/UX · High</text>
  <rect x="24" y="124" width="42" height="10" rx="5" fill="#6366f1" opacity="0.15"/>
  <text x="45" y="132" font-family="Arial,sans-serif" font-size="7" fill="#818cf8" text-anchor="middle">Design</text>
  <circle cx="110" cy="132" r="6" fill="#4f46e5" opacity="0.3"/>
  <text x="110" y="136" font-family="Arial,sans-serif" font-size="7.5" fill="#818cf8" text-anchor="middle">D</text>

  <!-- Task 2 -->
  <rect x="14" y="148" width="110" height="40" rx="6" fill="#1a1a2e"/>
  <rect x="14" y="148" width="3" height="40" rx="2" fill="#ec4899"/>
  <text x="24" y="163" font-family="Arial,sans-serif" font-size="9" font-weight="600" fill="#e2e8f0">Write unit tests</text>
  <text x="24" y="175" font-family="Arial,sans-serif" font-size="8" fill="#475569">Backend · Medium</text>

  <!-- Task 3 -->
  <rect x="14" y="194" width="110" height="14" rx="5" fill="#1a1a2e"/>
  <rect x="14" y="194" width="3" height="14" rx="2" fill="#f59e0b"/>
  <text x="24" y="204.5" font-family="Arial,sans-serif" font-size="8.5" font-weight="600" fill="#cbd5e1">Fix login bug</text>

  <!-- ── Column IN PROGRESS ── -->
  <rect x="138" y="68" width="122" height="146" rx="8" fill="#0f0f1c"/>
  <text x="148" y="84" font-family="Arial,sans-serif" font-size="9" font-weight="700" fill="#64748b" letter-spacing="1">IN PROGRESS</text>
  <circle cx="248" cy="79" r="9" fill="#a855f720"/>
  <text x="248" y="83" font-family="Arial,sans-serif" font-size="9" fill="#a855f7" text-anchor="middle">2</text>

  <!-- Task 4 -->
  <rect x="144" y="92" width="110" height="62" rx="6" fill="#1a1a2e"/>
  <rect x="144" y="92" width="3" height="62" rx="2" fill="#a855f7"/>
  <text x="154" y="107" font-family="Arial,sans-serif" font-size="9" font-weight="600" fill="#e2e8f0">API integration</text>
  <text x="154" y="119" font-family="Arial,sans-serif" font-size="8" fill="#475569">Backend · High</text>
  <!-- Progress bar -->
  <rect x="154" y="126" width="88" height="5" rx="2.5" fill="#1e1e35"/>
  <rect x="154" y="126" width="60" height="5" rx="2.5" fill="#a855f7"/>
  <text x="247" y="133" font-family="Arial,sans-serif" font-size="7.5" fill="#a855f7" text-anchor="end">68%</text>
  <circle cx="144" cy="144" r="0"/>
  <text x="154" y="147" font-family="Arial,sans-serif" font-size="7.5" fill="#64748b">Due Mar 14</text>

  <!-- Task 5 -->
  <rect x="144" y="160" width="110" height="48" rx="6" fill="#1a1a2e"/>
  <rect x="144" y="160" width="3" height="48" rx="2" fill="#22d3ee"/>
  <text x="154" y="175" font-family="Arial,sans-serif" font-size="9" font-weight="600" fill="#e2e8f0">Setup CI/CD</text>
  <text x="154" y="187" font-family="Arial,sans-serif" font-size="8" fill="#475569">DevOps · Medium</text>
  <!-- Progress bar -->
  <rect x="154" y="194" width="88" height="5" rx="2.5" fill="#1e1e35"/>
  <rect x="154" y="194" width="34" height="5" rx="2.5" fill="#22d3ee"/>
  <text x="247" y="201" font-family="Arial,sans-serif" font-size="7.5" fill="#22d3ee" text-anchor="end">39%</text>

  <!-- ── Column DONE ── -->
  <rect x="268" y="68" width="124" height="146" rx="8" fill="#0f0f1c"/>
  <text x="278" y="84" font-family="Arial,sans-serif" font-size="9" font-weight="700" fill="#64748b" letter-spacing="1">DONE</text>
  <circle cx="376" cy="79" r="9" fill="#10b98120"/>
  <text x="376" y="83" font-family="Arial,sans-serif" font-size="9" fill="#10b981" text-anchor="middle">4</text>

  <!-- Task 6 -->
  <rect x="274" y="92" width="112" height="42" rx="6" fill="#0f1a16"/>
  <rect x="274" y="92" width="3" height="42" rx="2" fill="#10b981"/>
  <text x="284" y="107" font-family="Arial,sans-serif" font-size="9" font-weight="600" fill="#475569">Auth system</text>
  <text x="284" y="119" font-family="Arial,sans-serif" font-size="8" fill="#374151">Backend</text>
  <circle cx="374" cy="106" r="7" fill="#10b981" opacity="0.2"/>
  <text x="374" y="110" font-family="Arial,sans-serif" font-size="10" fill="#10b981" text-anchor="middle">&#10003;</text>

  <!-- Task 7 -->
  <rect x="274" y="140" width="112" height="40" rx="6" fill="#0f1a16"/>
  <rect x="274" y="140" width="3" height="40" rx="2" fill="#10b981"/>
  <text x="284" y="155" font-family="Arial,sans-serif" font-size="9" font-weight="600" fill="#475569">DB schema design</text>
  <text x="284" y="167" font-family="Arial,sans-serif" font-size="8" fill="#374151">Database</text>
  <circle cx="374" cy="154" r="7" fill="#10b981" opacity="0.2"/>
  <text x="374" y="158" font-family="Arial,sans-serif" font-size="10" fill="#10b981" text-anchor="middle">&#10003;</text>

  <!-- Task 8 -->
  <rect x="274" y="186" width="112" height="22" rx="6" fill="#0f1a16"/>
  <rect x="274" y="186" width="3" height="22" rx="2" fill="#10b981"/>
  <text x="284" y="200" font-family="Arial,sans-serif" font-size="8.5" font-weight="600" fill="#475569">Figma wireframes</text>
  <circle cx="374" cy="197" r="6" fill="#10b981" opacity="0.2"/>
  <text x="374" y="201" font-family="Arial,sans-serif" font-size="10" fill="#10b981" text-anchor="middle">&#10003;</text>
</svg>
